<?xml version="1.0" encoding="utf-8"?>
<!-- Generator: Adobe Illustrator 22.1.0, SVG Export Plug-In . SVG Version: 6.00 Build 0)  -->
<svg version="1.1" id="Layer_1" xmlns="http://www.w3.org/2000/svg" xmlns:xlink="http://www.w3.org/1999/xlink" x="0px" y="0px"
	 viewBox="0 0 180 142" style="enable-background:new 0 0 180 142;" xml:space="preserve">
<style type="text/css">
	.st0{fill:#191818;}
</style>
<g id="XMLID_49_">
	<g id="XMLID_932_">
		<path id="XMLID_933_" class="st0" d="M37.1,63.1c-5.1,0-9.4-1.8-13-5.4c-3.6-3.6-5.4-7.9-5.4-13c0-5.1,1.8-9.4,5.4-13
			c3.6-3.6,7.9-5.4,13-5.4c4.2,0,7.9,1.3,11.2,3.8c0.3,0.3,0.5,0.6,0.6,1c0.1,0.4-0.1,0.8-0.3,1.1c-0.3,0.3-0.6,0.5-1,0.6
			c-0.4,0.1-0.8,0-1.1-0.3c-2.8-2.1-5.9-3.2-9.4-3.2c-4.2,0-7.8,1.5-10.8,4.5c-3,3-4.5,6.6-4.5,10.8c0,4.2,1.5,7.8,4.5,10.8
			c3,3,6.6,4.5,10.8,4.5c4,0,7.4-1.3,10.3-4c0.3-0.3,0.7-0.4,1.1-0.4c0.4,0,0.8,0.2,1.1,0.5c0.3,0.3,0.4,0.7,0.4,1.1
			c0,0.4-0.2,0.8-0.5,1.1C46,61.5,41.9,63.1,37.1,63.1z"/>
	</g>
	<g id="XMLID_928_">
		<path id="XMLID_929_" class="st0" d="M60.7,62.9c-0.4-0.2-0.7-0.4-0.8-0.8c-0.2-0.4-0.2-0.8,0-1.2l3.6-8.6v0l10.4-25
			c0-0.1,0.1-0.2,0.1-0.3l0.1-0.1c0.1-0.1,0.1-0.1,0.1-0.1c0,0,0.1-0.1,0.1-0.1c0.1-0.1,0.1-0.1,0.1-0.1c0.2-0.1,0.4-0.2,0.5-0.2
			h0.1c0.1,0,0.2,0,0.2,0c0,0,0.1,0,0.2,0c0.1,0,0.1,0,0.1,0c0.2,0,0.4,0.1,0.6,0.2l0.1,0.1c0.1,0.1,0.1,0.1,0.1,0.1
			c0,0,0.1,0.1,0.1,0.1c0.1,0.1,0.1,0.1,0.1,0.1c0.1,0.1,0.1,0.2,0.1,0.3l10.4,25v0l3.6,8.6c0.2,0.4,0.2,0.8,0,1.2
			c-0.2,0.4-0.4,0.7-0.8,0.8c-0.2,0.1-0.4,0.1-0.6,0.1c-0.7,0-1.2-0.3-1.4-0.9l-3.2-7.6H65.9l-3.2,7.6c-0.3,0.6-0.7,0.9-1.4,0.9
			c-0.2,0-0.3,0-0.3,0S60.9,63,60.7,62.9z M83.3,51.4l-8.1-19.5l-8.1,19.5H83.3z"/>
	</g>
	<g id="XMLID_925_">
		<path id="XMLID_926_" class="st0" d="M105.2,61.5c0,0.4-0.2,0.8-0.5,1.1c-0.3,0.3-0.6,0.5-1.1,0.5s-0.8-0.2-1.1-0.5
			c-0.3-0.3-0.5-0.6-0.5-1.1V27.8c0-0.4,0.2-0.8,0.5-1.1c0.3-0.3,0.7-0.5,1.1-0.5l20.4,0.1c0.4,0,0.8,0.2,1.1,0.5
			c0.3,0.3,0.5,0.7,0.5,1.1c0,0.4-0.2,0.8-0.5,1.1c-0.3,0.3-0.6,0.4-1.1,0.4l-18.8-0.1v13.8h14.1c0.4,0,0.8,0.2,1.1,0.5
			c0.3,0.3,0.5,0.6,0.5,1.1s-0.2,0.8-0.5,1.1c-0.3,0.3-0.6,0.5-1.1,0.5h-14.1V61.5z"/>
	</g>
	<g id="XMLID_922_">
		<path id="XMLID_923_" class="st0" d="M138.2,63.1c-0.4,0-0.8-0.2-1.1-0.5c-0.3-0.3-0.5-0.6-0.5-1.1V27.8c0-0.4,0.2-0.8,0.5-1.1
			c0.3-0.3,0.7-0.5,1.1-0.5l20.4,0.1c0.4,0,0.8,0.2,1.1,0.5c0.3,0.3,0.5,0.7,0.5,1.1c0,0.4-0.2,0.8-0.5,1.1
			c-0.3,0.3-0.7,0.4-1.1,0.4l-18.8-0.1v13.8h14.1c0.4,0,0.8,0.2,1.1,0.5c0.3,0.3,0.5,0.6,0.5,1.1s-0.2,0.8-0.5,1.1
			c-0.3,0.3-0.7,0.5-1.1,0.5h-14.1V60h18.8c0.4,0,0.8,0.2,1.1,0.5c0.3,0.3,0.5,0.6,0.5,1.1s-0.2,0.8-0.5,1.1
			c-0.3,0.3-0.7,0.5-1.1,0.5H138.2z"/>
	</g>
	<g id="XMLID_918_">
		<path id="XMLID_919_" class="st0" d="M21.5,122.6c-0.4,0-0.8-0.1-1.1-0.4c-0.3-0.3-0.5-0.7-0.5-1.1V87.4c0-0.4,0.2-0.8,0.5-1.1
			c0.3-0.3,0.6-0.5,1.1-0.5H30c5.1,0,9.4,1.8,13,5.4c3.6,3.6,5.4,7.9,5.4,13c0,5.1-1.8,9.4-5.4,13c-3.6,3.6-7.9,5.4-13,5.4
			L21.5,122.6L21.5,122.6z M23,119.5l7-0.1c4.2,0,7.8-1.5,10.8-4.5c3-3,4.5-6.6,4.5-10.8c0-4.2-1.5-7.8-4.5-10.8
			c-3-3-6.6-4.5-10.8-4.5h-7V119.5z"/>
	</g>
	<g id="XMLID_914_">
		<path id="XMLID_915_" class="st0" d="M126.7,85.9c3,0,5.5,1,7.6,2.9c2.1,1.9,3.1,4.3,3.1,7c0,2.4-0.9,4.6-2.6,6.4
			c-1.7,1.8-3.8,2.9-6.3,3.3l7.3,14.9c0.2,0.4,0.2,0.8,0.1,1.2c-0.1,0.4-0.4,0.7-0.8,0.9c-0.2,0.1-0.4,0.2-0.7,0.2
			c-0.6,0-1.1-0.3-1.4-0.8l-7.9-16.1h-8.6v15.2c0,0.4-0.2,0.8-0.5,1.1c-0.3,0.3-0.6,0.4-1.1,0.4c-0.4,0-0.8-0.1-1.1-0.4
			c-0.3-0.3-0.4-0.7-0.4-1.1V87.4c0-0.4,0.1-0.8,0.4-1.1c0.3-0.3,0.7-0.4,1.1-0.4H126.7z M134.4,95.8c0-1.9-0.8-3.5-2.3-4.8
			c-1.5-1.3-3.3-2-5.4-2h-10.1v13.7h10.3c2.1,0,3.9-0.7,5.3-2.1C133.7,99.3,134.4,97.7,134.4,95.8z"/>
	</g>
	<g id="XMLID_911_">
		<path id="XMLID_912_" class="st0" d="M157.6,121.1c0,0.4-0.2,0.8-0.5,1.1c-0.3,0.3-0.6,0.5-1.1,0.5c-0.4,0-0.8-0.2-1.1-0.5
			c-0.3-0.3-0.5-0.6-0.5-1.1V87.5c0-0.4,0.2-0.8,0.5-1.1c0.3-0.3,0.6-0.5,1.1-0.5c0.4,0,0.8,0.2,1.1,0.5c0.3,0.3,0.5,0.7,0.5,1.1
			V121.1z"/>
	</g>
	<g id="XMLID_67_">
		<path id="XMLID_909_" class="st0" d="M157.2,1.6c0.3-0.3,0.7-0.3,1.1-0.3c0.4,0,0.8,0.2,1,0.6c0.3,0.3,0.3,0.7,0.3,1.1
			c0,0.4-0.2,0.8-0.6,1L140.4,18c-0.3,0.3-0.7,0.3-1.1,0.3c-0.4,0-0.8-0.2-1-0.6c-0.3-0.3-0.3-0.7-0.3-1.1c0-0.4,0.2-0.8,0.6-1
			L157.2,1.6z"/>
	</g>
	<path id="XMLID_62_" class="st0" d="M177.5,7.7h-14.1c-0.4,0-0.7,0.1-1,0.4c-0.3,0.3-0.4,0.6-0.4,1c0,0.4,0.1,0.7,0.4,1
		c0.3,0.3,0.6,0.4,1,0.4l13.2,0v128.9H3.3V10.5l133,0c0.4,0,0.7-0.1,1-0.4c0.3-0.3,0.4-0.6,0.4-1c0-0.4-0.1-0.7-0.4-1
		c-0.3-0.3-0.6-0.4-1-0.4H2.4c-1.1,0-2,0.9-2,2v130.7c0,1.1,0.9,2,2,2h175.1c1.1,0,2-0.9,2-2V9.6C179.5,8.6,178.6,7.7,177.5,7.7z"/>
	<g id="XMLID_56_">
		<path id="XMLID_59_" class="st0" d="M80.1,122.5c-5.1,0-9.4-1.8-13-5.4c-3.6-3.6-5.4-7.9-5.4-13c0-5.1,1.8-9.4,5.4-13
			c3.6-3.6,7.9-5.4,13-5.4c5.1,0,9.4,1.8,13,5.4s5.4,7.9,5.4,13c0,5.1-1.8,9.4-5.4,13C89.5,120.7,85.2,122.5,80.1,122.5z M80.1,88.8
			c-4.2,0-7.8,1.5-10.8,4.5c-3,3-4.5,6.6-4.5,10.8c0,4.2,1.5,7.8,4.5,10.8c3,3,6.6,4.5,10.8,4.5c4.2,0,7.8-1.5,10.8-4.5
			c3-3,4.5-6.6,4.5-10.8c0-4.2-1.5-7.8-4.5-10.8C87.9,90.3,84.3,88.8,80.1,88.8z"/>
	</g>
</g>
<g>
</g>
<g>
</g>
<g>
</g>
<g>
</g>
<g>
</g>
<g>
</g>
<g>
</g>
<g>
</g>
<g>
</g>
<g>
</g>
<g>
</g>
<g>
</g>
<g>
</g>
<g>
</g>
<g>
</g>
</svg>
